<svg width="61" height="61" viewBox="0 0 61 61" fill="none" xmlns="http://www.w3.org/2000/svg">
<g id="Vector">
<path d="M61 30.5C61 47.3447 47.3447 61 30.5 61C13.6553 61 0 47.3447 0 30.5C0 13.6553 13.6553 0 30.5 0C47.3447 0 61 13.6553 61 30.5Z" fill="#D1ECFB"/>
<path d="M25.3379 38.8182V36.3605L31.0803 31.0435C31.5687 30.5709 31.9783 30.1455 32.3091 29.7674C32.6452 29.3893 32.8999 29.0191 33.0732 28.6568C33.2465 28.2892 33.3331 27.8927 33.3331 27.4673C33.3331 26.9947 33.2255 26.5877 33.0102 26.2464C32.7949 25.8998 32.5008 25.6346 32.1279 25.4508C31.7551 25.2617 31.3323 25.1672 30.8597 25.1672C30.3661 25.1672 29.9355 25.267 29.5679 25.4666C29.2003 25.6661 28.9167 25.9523 28.7172 26.3252C28.5176 26.698 28.4178 27.1417 28.4178 27.6564H25.1804C25.1804 26.6009 25.4193 25.6845 25.8972 24.9073C26.375 24.1301 27.0446 23.5288 27.9058 23.1034C28.767 22.6781 29.7596 22.4654 30.8834 22.4654C32.0387 22.4654 33.0443 22.6702 33.9003 23.0798C34.7615 23.4842 35.431 24.0461 35.9089 24.7655C36.3868 25.4849 36.6257 26.3094 36.6257 27.2389C36.6257 27.8481 36.505 28.4493 36.2634 29.0427C36.0271 29.6361 35.6043 30.2952 34.9952 31.0199C34.386 31.7393 33.5274 32.6032 32.4194 33.6114L30.0641 35.9194V36.0297H36.8384V38.8182H25.3379Z" fill="#119EE6"/>
</g>
</svg>
