<svg width="61" height="61" viewBox="0 0 61 61" fill="none" xmlns="http://www.w3.org/2000/svg">
<g id="Vector">
<path d="M61 30.5C61 47.3447 47.3447 61 30.5 61C13.6553 61 0 47.3447 0 30.5C0 13.6553 13.6553 0 30.5 0C47.3447 0 61 13.6553 61 30.5Z" fill="#D1ECFB"/>
<path d="M31.3008 39.0387C30.1245 39.0387 29.0769 38.8366 28.1579 38.4322C27.2441 38.0226 26.5221 37.4607 25.9917 36.7465C25.4666 36.0271 25.1961 35.1974 25.1804 34.2574H28.6148C28.6358 34.6512 28.7644 34.9978 29.0007 35.2971C29.2423 35.5912 29.5626 35.8196 29.9617 35.9824C30.3608 36.1452 30.8098 36.2266 31.3087 36.2266C31.8286 36.2266 32.2881 36.1347 32.6872 35.9509C33.0863 35.7671 33.3988 35.5124 33.6246 35.1869C33.8504 34.8613 33.9633 34.4858 33.9633 34.0604C33.9633 33.6298 33.8425 33.2491 33.6009 32.9183C33.3646 32.5822 33.0233 32.3196 32.5769 32.1306C32.1358 31.9415 31.6107 31.847 31.0015 31.847H29.497V29.3421H31.0015C31.5161 29.3421 31.9704 29.2528 32.3642 29.0743C32.7633 28.8957 33.0732 28.6489 33.2937 28.3338C33.5143 28.0135 33.6246 27.6406 33.6246 27.2153C33.6246 26.8109 33.5274 26.4564 33.3331 26.1519C33.1441 25.842 32.8762 25.6005 32.5297 25.4272C32.1883 25.2539 31.7892 25.1672 31.3323 25.1672C30.8702 25.1672 30.4475 25.2512 30.0641 25.4193C29.6808 25.5821 29.3736 25.8158 29.1425 26.1204C28.9115 26.4249 28.7881 26.782 28.7723 27.1916H25.5033C25.5191 26.2621 25.7843 25.4429 26.2989 24.734C26.8135 24.0251 27.5067 23.471 28.3784 23.0719C29.2554 22.6676 30.2453 22.4654 31.3481 22.4654C32.4614 22.4654 33.4355 22.6676 34.2705 23.0719C35.1055 23.4763 35.754 24.0224 36.2161 24.7104C36.6835 25.393 36.9146 26.1597 36.9093 27.0105C36.9146 27.9137 36.6336 28.6673 36.0665 29.2712C35.5046 29.8751 34.772 30.2584 33.8688 30.4212V30.5473C35.0556 30.6996 35.9588 31.1118 36.5785 31.784C37.2034 32.4509 37.5132 33.2859 37.508 34.2889C37.5132 35.2079 37.248 36.0244 36.7124 36.7386C36.182 37.4528 35.4494 38.0147 34.5147 38.4243C33.5799 38.8339 32.5087 39.0387 31.3008 39.0387Z" fill="#119EE6"/>
</g>
</svg>
