<svg width="61" height="62" viewBox="0 0 61 62" fill="none" xmlns="http://www.w3.org/2000/svg">
<g id="Vector">
<path d="M61 31C61 48.1208 47.3447 62 30.5 62C13.6553 62 0 48.1208 0 31C0 13.8792 13.6553 0 30.5 0C47.3447 0 61 13.8792 61 31Z" fill="#D1ECFB"/>
<path d="M31.2299 39.6787C30.1166 39.6787 29.1241 39.4706 28.2524 39.0542C27.3859 38.6379 26.698 38.0641 26.1886 37.3329C25.6792 36.6017 25.414 35.7637 25.393 34.819H28.7014C28.7382 35.4541 29.0007 35.9692 29.4891 36.3642C29.9775 36.7591 30.5578 36.9566 31.2299 36.9566C31.7656 36.9566 32.2382 36.8365 32.6478 36.5963C33.0627 36.3508 33.3856 36.0119 33.6167 35.5795C33.853 35.1419 33.9712 34.6402 33.9712 34.0744C33.9712 33.4979 33.8504 32.9909 33.6088 32.5532C33.3725 32.1155 33.0443 31.7739 32.6242 31.5284C32.2041 31.2829 31.7236 31.1575 31.1827 31.1521C30.7101 31.1521 30.2506 31.2509 29.8042 31.4483C29.3631 31.6458 29.0191 31.9154 28.7723 32.257L25.7396 31.7045L26.5037 23.0578H36.3658V25.892H29.3158L28.8983 29.9992H28.9929C29.2764 29.5936 29.7044 29.2573 30.2768 28.9904C30.8492 28.7236 31.4899 28.5901 32.1988 28.5901C33.1703 28.5901 34.0368 28.8223 34.7983 29.2867C35.5597 29.751 36.161 30.3889 36.6021 31.2002C37.0432 32.0061 37.2611 32.9348 37.2559 33.9863C37.2611 35.0912 37.0091 36.0733 36.4997 36.9326C35.9956 37.7866 35.2893 38.4591 34.3808 38.9502C33.4775 39.4359 32.4273 39.6787 31.2299 39.6787Z" fill="#119EE6"/>
</g>
</svg>
