<svg width="61" height="61" viewBox="0 0 61 61" fill="none" xmlns="http://www.w3.org/2000/svg">
<g id="Vector">
<path d="M61 30.5C61 47.3447 47.3447 61 30.5 61C13.6553 61 0 47.3447 0 30.5C0 13.6553 13.6553 0 30.5 0C47.3447 0 61 13.6553 61 30.5Z" fill="#D1ECFB"/>
<path d="M31.5293 39.0387C30.6996 39.0335 29.8987 38.8943 29.1268 38.6213C28.3601 38.3482 27.6721 37.9044 27.063 37.29C26.4538 36.6756 25.9707 35.8617 25.6136 34.8481C25.2618 33.8346 25.0858 32.59 25.0858 31.1144C25.0911 29.7596 25.246 28.5491 25.5506 27.4831C25.8604 26.4118 26.3015 25.5033 26.8739 24.7576C27.4516 24.0119 28.1421 23.4448 28.9456 23.0562C29.7491 22.6623 30.6497 22.4654 31.6474 22.4654C32.724 22.4654 33.6745 22.6754 34.4989 23.0956C35.3234 23.5104 35.9851 24.0749 36.4839 24.7891C36.9881 25.5033 37.2927 26.3041 37.3977 27.1916H34.0342C33.9029 26.6297 33.6272 26.1886 33.2071 25.8683C32.787 25.548 32.2671 25.3878 31.6474 25.3878C30.5972 25.3878 29.7989 25.8447 29.2528 26.7584C28.7119 27.6721 28.4362 28.9141 28.4257 30.4842H28.536C28.7775 30.0064 29.1031 29.5994 29.5127 29.2633C29.9276 28.922 30.3976 28.662 30.9227 28.4835C31.4531 28.2997 32.0124 28.2078 32.6006 28.2078C33.5563 28.2078 34.407 28.4336 35.1527 28.8852C35.8984 29.3316 36.4866 29.946 36.9172 30.7284C37.3478 31.5109 37.5631 32.4062 37.5631 33.4145C37.5631 34.5068 37.3084 35.4783 36.799 36.329C36.2949 37.1798 35.5886 37.8467 34.6801 38.3298C33.7769 38.8077 32.7266 39.044 31.5293 39.0387ZM31.5135 36.3605C32.0387 36.3605 32.5087 36.2345 32.9235 35.9824C33.3384 35.7304 33.664 35.389 33.9003 34.9584C34.1366 34.5278 34.2547 34.0447 34.2547 33.509C34.2547 32.9734 34.1366 32.4929 33.9003 32.0675C33.6692 31.6422 33.3489 31.3035 32.9393 31.0514C32.5297 30.7993 32.0623 30.6733 31.5371 30.6733C31.1433 30.6733 30.7783 30.7468 30.4422 30.8939C30.1114 31.0409 29.8199 31.2457 29.5679 31.5083C29.3211 31.7708 29.1268 32.0754 28.985 32.422C28.8432 32.7633 28.7723 33.1283 28.7723 33.5169C28.7723 34.0368 28.8905 34.5121 29.1268 34.9427C29.3683 35.3733 29.6939 35.7172 30.1035 35.9746C30.5184 36.2319 30.9884 36.3605 31.5135 36.3605Z" fill="#119EE6"/>
</g>
</svg>
